Coordinates
version=1
nRows=17
nColumns=36
inDegrees=yes

Units are S.I. units (second, meters, Newtons, ...)
If the header above contains a line with 'inDegrees', this indicates whether rotational values are in degrees (yes) or radians (no).

endheader
time	pelvis_tilt	pelvis_list	pelvis_rotation	pelvis_tx	pelvis_ty	pelvis_tz	hip_flexion_r	hip_adduction_r	hip_rotation_r	knee_angle_r	knee_angle_r_beta	ankle_angle_r	subtalar_angle_r	mtp_angle_r	hip_flexion_l	hip_adduction_l	hip_rotation_l	knee_angle_l	knee_angle_l_beta	ankle_angle_l	subtalar_angle_l	mtp_angle_l	lumbar_extension	lumbar_bending	lumbar_rotation	arm_flex_r	arm_add_r	arm_rot_r	elbow_flex_r	pro_sup_r	arm_flex_l	arm_add_l	arm_rot_l	elbow_flex_l	pro_sup_l
      1.23333330	     -7.05755196	      2.48378467	     -2.99225710	      0.20559305	      1.26081513	     -0.56959614	      6.34241554	     -1.17309471	      2.46628544	      7.80781964	      0.13627216	      2.92592309	     -7.39260629	     -7.49999714	      4.98640145	      1.16991530	     -7.68577463	      7.33462426	      0.12801334	      1.23013919	     -6.72201956	     -7.49999714	     -0.75531541	     -2.62341576	      0.56080236	     -2.42523138	    -12.21879403	     15.39940535	     19.00641788	    100.39767385	     -1.46424978	    -14.37505566	     21.52534278	     21.65789748	     95.72839794
      1.25000000	     -7.10370573	      2.57836906	     -3.13849746	      0.20550366	      1.26530544	     -0.56993595	      6.78940179	     -1.25974993	      2.69669811	      8.25921247	      0.14415045	      2.95274197	     -7.27619626	     -7.49999716	      5.45174663	      1.26408028	     -7.75642616	      7.73852182	      0.13506268	      1.38150470	     -6.81630092	     -7.49999716	     -1.27445178	     -2.63068038	      0.62144360	     -2.26163866	    -12.47005400	     15.49906075	     19.20791264	    100.49600956	     -1.47876752	    -14.50001720	     21.65938274	     21.91640263	     95.85671502
      1.26666670	     -7.69130331	      2.65212472	     -3.31875919	      0.20588555	      1.26430818	     -0.56937586	      7.87780075	     -1.28902190	      2.70611670	      8.92816150	      0.15582581	      3.12128862	     -7.02378783	     -7.49999761	      6.38771382	      1.30402351	     -7.90347172	      8.06200421	      0.14070852	      1.73914560	     -6.81516859	     -7.49999761	     -1.09016448	     -2.61522383	      0.60505405	     -2.64586861	    -13.10387279	     17.39874005	     20.28491042	    101.38838273	     -2.16326907	    -15.13669846	     23.13158456	     23.63595437	     96.72703801
      1.28333330	     -7.73660575	      2.77931931	     -3.36057056	      0.20025990	      1.26426011	     -0.57453707	      8.35988239	     -1.46504921	      2.89183871	      9.47410568	      0.16535434	      3.25884307	     -6.96190986	     -7.49999763	      6.94217790	      1.45330465	     -7.93871239	      8.62291447	      0.15049825	      1.82943660	     -6.92438353	     -7.49999763	     -1.85556265	     -2.65936842	      0.52325567	     -2.83824168	    -13.43002040	     17.40021314	     20.38217909	    101.41264130	     -2.13860913	    -15.34000130	     23.11176778	     23.82142376	     96.81425624
      1.30000000	     -8.05882300	      2.97822738	     -3.38590146	      0.20892413	      1.25897509	     -0.57691117	      8.96515035	     -1.79091132	      2.76535334	      9.94742118	      0.17361525	      3.46069446	     -6.68839112	     -7.49999778	      7.41076109	      1.74906883	     -8.03245519	      8.84806043	      0.15442779	      1.70155549	     -7.33276912	     -7.49999778	     -1.96010210	     -2.71831990	      0.58853454	     -3.81010667	    -14.02773282	     17.85459715	     21.43750685	    100.94386568	     -2.86449543	    -15.65044730	     23.27582323	     24.88290865	     97.00455628
      1.31666670	     -8.51176329	      3.09151762	     -3.37303902	      0.20097563	      1.25866811	     -0.57424781	     10.03480115	     -1.96357896	      2.81269730	     10.83187155	      0.18905182	      3.73864715	     -6.69923134	     -7.49999784	      8.39605809	      1.84977591	     -8.10917569	      9.58853554	      0.16735152	      2.33900514	     -7.36591270	     -7.49999784	     -2.24724660	     -2.75351655	      0.68900564	     -4.47845240	    -14.53856936	     18.07104677	     21.71707789	    101.00202935	     -3.42769481	    -15.96843145	     23.29056134	     24.93999597	     97.21587530
      1.33333330	     -8.43733169	      3.22868614	     -3.40265333	      0.20930914	      1.25846686	     -0.57663279	     10.13237094	     -2.21598070	      2.86717903	     11.27906682	      0.19685685	      3.87862439	     -6.67554278	     -7.49999786	      8.47116717	      2.06789648	     -8.18995847	     10.00031048	      0.17453834	      2.47643880	     -7.60456815	     -7.49999786	     -2.81926017	     -2.86058089	      0.79114310	     -5.04159177	    -14.94132908	     18.25967853	     21.56465826	    101.03688356	     -3.90848994	    -16.20623584	     23.39426460	     24.74418239	     97.29143098
      1.35000000	     -9.02069680	      3.42760403	     -3.27634189	      0.20354924	      1.25077149	     -0.58210237	     11.35091260	     -2.56352943	      2.77595451	     12.30776185	      0.21481097	      4.36097698	     -6.58088388	     -7.49999815	      9.73573469	      2.30257378	     -8.11562111	     11.11691734	      0.19402681	      2.91475759	     -7.92989164	     -7.49999815	     -2.91688104	     -2.93229841	      1.07816347	     -5.97067867	    -15.76249921	     20.44658238	     22.18822050	    100.12255675	     -4.33069308	    -16.59953039	     24.84865204	     24.81518783	     97.17214711
      1.36666670	     -9.54320149	      3.63177705	     -3.04405678	      0.20435362	      1.24593476	     -0.58173403	     12.65934667	     -2.95373077	      2.55238472	     13.70733523	      0.23923813	      5.00285449	     -6.68236863	     -7.49999821	     10.98791168	      2.55109344	     -7.96255043	     12.39958793	      0.21641364	      3.35816024	     -8.53021372	     -7.49999821	     -3.21352624	     -3.05409532	      1.27745560	     -7.02836768	    -16.42938345	     22.21924962	     22.74657685	     99.59471707	     -4.86259153	    -17.05445067	     26.17339259	     25.16532273	     96.97823074
      1.38333330	    -10.31846493	      3.86430226	     -2.71763748	      0.20497360	      1.24163212	     -0.58224980	     14.27698560	     -3.30901644	      2.54743930	     15.14655414	      0.26435724	      5.69248369	     -6.95933335	     -7.49999852	     12.63826627	      2.78648920	     -7.86854736	     13.97807095	      0.24396336	      4.02192149	     -8.86904971	     -7.49999852	     -3.50248742	     -3.25341120	      1.56112774	     -8.21835156	    -17.25355670	     25.05359642	     23.83200928	     98.09586194	     -5.31501328	    -17.67282458	     28.33477684	     25.79449491	     95.89682903
      1.40000000	    -11.24404664	      4.08808824	     -2.53578815	      0.20529296	      1.23800674	     -0.58183534	     16.42797704	     -3.56957695	      2.61343465	     17.19963881	      0.30019033	      6.85351247	     -6.90479487	     -7.49999876	     14.81441675	      2.93976909	     -7.60878565	     16.16783387	      0.28218193	      5.13927846	     -9.24798699	     -7.49999876	     -3.84798923	     -3.49702886	      1.92233925	     -9.37735638	    -18.33936548	     28.69464121	     25.58614042	     97.13929764	     -5.94024608	    -18.55283056	     31.11559855	     27.06039473	     95.38295367
      1.41666670	    -12.15174407	      4.28598494	     -2.31574734	      0.20563524	      1.23339959	     -0.58237816	     18.65388292	     -3.83378597	      2.56996315	     19.53158561	      0.34089048	      8.02944260	     -6.99158205	     -7.49999890	     16.99649756	      3.05758215	     -7.32628524	     18.56276683	      0.32398140	      6.41683234	     -9.50239240	     -7.49999890	     -4.62448360	     -3.72023155	      1.98052011	    -10.89266757	    -19.23291547	     29.39831345	     27.98324737	     94.86593057	     -7.07810565	    -19.42283986	     31.52590619	     29.37011256	     93.11971953
      1.43333330	    -13.60448766	      4.46360672	     -2.15811311	      0.20646807	      1.23161212	     -0.58210845	     21.55531037	     -4.03211901	      2.69378211	     22.01998321	      0.38432121	      9.34300875	     -6.96878922	     -7.49999895	     19.71140932	      3.10080370	     -7.20702129	     20.91188571	      0.36498126	      7.45787297	     -9.73885854	     -7.49999895	     -4.71986125	     -3.96383039	      2.40582696	    -12.28771591	    -20.90816031	     34.44689949	     31.14080721	     96.05513700	     -7.57132525	    -20.75555489	     35.54327542	     31.30036693	     94.64386966
      1.45000000	    -14.44289226	      4.57026881	     -2.00007810	      0.20648977	      1.22387999	     -0.58304006	     23.91946914	     -4.15151531	      2.79821491	     24.85437531	      0.43379068	     10.74691314	     -7.14827370	     -7.49999913	     21.77548659	      3.12408906	     -7.01584620	     23.32956150	      0.40717766	      8.59758824	    -10.05541470	     -7.49999913	     -5.57582909	     -4.14655329	      2.39861824	    -12.73538071	    -22.92313910	     41.31593693	     34.24783911	     94.10415234	     -7.63097307	    -22.23569424	     40.59930862	     33.16289561	     94.16106667
      1.46666670	    -15.25190322	      4.55479132	     -1.79884654	      0.20675362	      1.21946879	     -0.58299977	     26.42697111	     -4.12098557	      2.92989767	     28.18963990	      0.49200203	     12.21882436	     -7.51977186	     -7.49999921	     24.03049405	      3.02082885	     -6.63422108	     26.29812449	      0.45898886	     10.00873652	    -10.46087448	     -7.49999921	     -6.81655597	     -4.12953327	      2.21099639	    -13.88466063	    -24.05509850	     41.77524218	     37.03412054	     91.93146814	     -8.56297201	    -23.13561080	     40.92659081	     35.61713777	     92.05401204
      1.48333330	    -16.14780896	      4.75240893	     -1.70329456	      0.20696351	      1.21756430	     -0.58374104	     29.29398730	     -4.29229162	      3.15537931	     31.97835956	      0.55812766	     14.26933009	     -6.99621917	     -7.49999928	     26.55219393	      3.05807932	     -6.56635393	     29.52858515	      0.51537103	     11.54333839	    -10.59172300	     -7.49999928	     -7.43973781	     -4.34904928	      2.25079316	    -14.10398026	    -26.17667429	     46.88104688	     40.75017750	     92.70223456	     -8.15705274	    -24.44835909	     45.51055053	     36.99243217	     93.77066855
      1.50000000	    -16.87855117	      4.78541630	     -1.68456928	      0.20717581	      1.20768720	     -0.58357891	     31.92961392	     -4.19173405	      3.36662125	     35.65132840	      0.62223306	     16.40003244	     -6.66545751	     -7.49999936	     29.17562571	      2.90827071	     -6.19922173	     33.36929442	      0.58240406	     13.27439528	    -10.92387753	     -7.49999936	     -8.33819082	     -4.37253269	      2.13816227	    -14.30671725	    -27.39859201	     49.38172415	     42.92093827	     90.50696180	     -8.11323891	    -25.23626750	     47.53517364	     38.00731666	     92.39165102
